<svg width="16" height="16" viewBox="0 0 16 16" fill="none" xmlns="http://www.w3.org/2000/svg">
<path d="M4 3H10V4H4V3ZM4 5H10V6H4V5ZM4 7H7V8H4V7ZM4 12H6V13H4V12Z" fill="black"/>
<path d="M6 15H3C2.73486 14.9997 2.48066 14.8943 2.29319 14.7068C2.10571 14.5193 2.00026 14.2651 2 14V2C2.00026 1.73486 2.10571 1.48066 2.29319 1.29319C2.48066 1.10571 2.73486 1.00026 3 1H11C11.2651 1.00026 11.5193 1.10571 11.7068 1.29319C11.8943 1.48066 11.9997 1.73486 12 2V7H11V2H3V14H6V15Z" fill="black"/>
<path d="M12 10H8.92308C8.41328 10 8 10.4133 8 10.9231V10.9231C8 11.4329 8.41328 11.8462 8.92308 11.8462H11C11.5523 11.8462 12 12.2939 12 12.8462V13C12 13.5523 11.5523 14 11 14H8" stroke="black" stroke-width="0.8"/>
<path d="M10 9V15" stroke="black" stroke-width="0.8"/>
</svg>
