<svg width="16" height="16" viewBox="0 0 16 16" fill="none" xmlns="http://www.w3.org/2000/svg">
<path d="M9.5 12H11.5V14H9.5V12ZM13 12H15V14H13V12ZM9.5 8.5H11.5V10.5H9.5V8.5ZM13 8.5H15V10.5H13V8.5Z" fill="black"/>
<path d="M8.5 12H2V5H14V7.5H15V5C14.9997 4.73486 14.8943 4.48066 14.7068 4.29319C14.5193 4.10571 14.2651 4.00026 14 4H11V2C10.9997 1.73486 10.8943 1.48066 10.7068 1.29319C10.5193 1.10571 10.2651 1.00026 10 1H6C5.73486 1.00026 5.48066 1.10571 5.29319 1.29319C5.10571 1.48066 5.00026 1.73486 5 2V4H2C1.73486 4.00026 1.48066 4.10571 1.29319 4.29319C1.10571 4.48066 1.00026 4.73486 1 5V12C1.00026 12.2651 1.10571 12.5193 1.29319 12.7068C1.48066 12.8943 1.73486 12.9997 2 13H8.5V12ZM6 2H10V4H6V2Z" fill="black"/>
</svg>
