<svg width="16" height="16" viewBox="0 0 16 16" fill="none" xmlns="http://www.w3.org/2000/svg">
<path d="M2 2L14 14M7.056 7.058C6.80581 7.30801 6.66519 7.64717 6.66506 8.00086C6.66494 8.35456 6.80532 8.69381 7.05533 8.944C7.30534 9.19419 7.6445 9.33481 7.9982 9.33494C8.35189 9.33506 8.69115 9.19468 8.94133 8.94467" stroke="black" stroke-linecap="round" stroke-linejoin="round"/>
<path d="M6.24167 3.57662C6.81329 3.41311 7.40514 3.33119 7.99967 3.33329C10.6663 3.33329 12.8883 4.88863 14.6663 7.99996C14.1477 8.90729 13.5917 9.68262 12.9977 10.3253M11.571 11.566C10.4837 12.2993 9.29434 12.6666 7.99967 12.6666C5.33301 12.6666 3.11101 11.1113 1.33301 7.99996C2.24567 6.40329 3.27501 5.21662 4.42101 4.43929" stroke="black" stroke-linecap="round" stroke-linejoin="round"/>
</svg>
