<svg width="20" height="20" viewBox="0 0 20 20" fill="none" xmlns="http://www.w3.org/2000/svg">
<path fill-rule="evenodd" clip-rule="evenodd" d="M16.375 10.3662L18.0669 12.0581C18.1841 12.1753 18.25 12.3343 18.25 12.5V14.375C18.25 14.5408 18.1842 14.6997 18.0669 14.8169C17.9497 14.9342 17.7908 15 17.625 15L14.125 15L13.25 15H12H8.25H7L6.125 15L2.625 15C2.45924 15 2.30027 14.9342 2.18306 14.8169C2.06585 14.6997 2 14.5408 2 14.375V12.5C2.00004 12.3343 2.06591 12.1753 2.18312 12.0581L3.875 10.3662V8.125C3.87694 6.57615 4.45311 5.08303 5.49211 3.93436C6.5311 2.7857 7.95911 2.06308 9.5 1.90625H10.75C12.2909 2.06308 13.7189 2.7857 14.7579 3.93436C15.7969 5.08303 16.3731 6.57615 16.375 8.125V10.3662ZM3.25 12.7587V13.75H17V12.7587L15.3081 11.0669C15.1909 10.9497 15.125 10.7907 15.125 10.625V8.125C15.125 6.79892 14.5982 5.52715 13.6605 4.58947C12.7229 3.65178 11.4511 3.125 10.125 3.125C8.79892 3.125 7.52715 3.65178 6.58947 4.58947C5.65178 5.52715 5.125 6.79892 5.125 8.125V10.625C5.12496 10.7907 5.05909 10.9497 4.94187 11.0669L3.25 12.7587Z" fill="#4D4D4D"/>
<rect x="6.625" y="16.7881" width="7" height="1.64441" rx="0.822205" fill="#4D4D4D"/>
</svg>
