<svg width="36" height="37" viewBox="0 0 36 37" fill="none" xmlns="http://www.w3.org/2000/svg">
<g clip-path="url(#clip0_1821_682)">
<path d="M18.0658 0C18.8153 0.0632166 19.5675 0.103143 20.3137 0.194973C22.8103 0.501075 25.1288 1.33088 27.2876 2.62049C27.4246 2.70234 27.5875 2.76955 27.7438 2.78552C28.7321 2.88534 29.5189 3.64993 29.6266 4.63611C29.7317 5.597 29.1251 6.52994 28.2014 6.82872C27.2583 7.13349 26.2414 6.72225 25.7386 5.86583C25.6189 5.66154 25.4274 5.46524 25.2212 5.35012C16.5341 0.49309 5.56652 5.60831 3.71431 15.3796C3.22083 17.9835 3.41703 20.5421 4.29691 23.0454C4.33216 23.1466 4.37672 23.2444 4.45852 23.4454C4.73718 23.1379 4.96397 22.8698 5.20938 22.6202C5.79996 22.0193 6.39453 21.4224 6.99774 20.8342C7.14139 20.6938 7.18063 20.5614 7.14272 20.3651C6.0161 14.6077 9.70988 8.45705 15.8291 7.28787C17.7977 6.91124 19.7284 7.03434 21.6285 7.68048C21.8074 7.74104 22.0169 7.76167 22.2045 7.73971C23.2706 7.61394 24.2382 8.26407 24.5495 9.33476C24.8195 10.263 24.2761 11.3524 23.3351 11.7723C22.3914 12.1928 21.2834 11.8488 20.7021 10.9824C20.6037 10.836 20.4108 10.7122 20.2372 10.6623C17.0409 9.74267 14.3268 10.6137 12.1573 13.0479C9.99253 15.4774 9.60613 18.2696 10.8551 21.2807C10.8804 21.3406 10.9043 21.4011 10.9196 21.4384C8.46953 23.8879 6.03273 26.3247 3.568 28.7895C3.49085 28.6864 3.39242 28.5606 3.3013 28.4302C0.734816 24.7317 -0.357222 20.6412 0.102338 16.1615C0.912388 8.26074 6.83147 1.81132 14.6034 0.358671C15.5571 0.180334 16.5381 0.145731 17.5064 0.0439189C17.6268 0.0312756 17.7465 0.0146396 17.8662 0C17.9328 0 17.9993 0 18.0658 0Z" fill="#F41816"/>
<path d="M32.4022 7.38306C33.4929 8.82905 34.3295 10.3955 34.9368 12.0844C38.6232 22.3374 32.3656 33.57 21.7033 35.774C17.1077 36.7242 12.7648 35.9703 8.71255 33.5833C8.57488 33.5022 8.4146 33.4283 8.25831 33.413C7.27334 33.3152 6.47327 32.5606 6.36686 31.609C6.25313 30.5942 6.85036 29.6586 7.80074 29.3611C8.75977 29.061 9.78397 29.4896 10.2681 30.3779C10.3479 30.5243 10.4663 30.676 10.606 30.7592C18.6752 35.5763 29.1906 31.6376 32.065 22.7081C33.1298 19.4015 32.9489 16.1109 31.773 12.8603C31.7551 12.8104 31.7278 12.7638 31.668 12.6387C31.4771 12.849 31.3221 13.0326 31.1539 13.203C30.4436 13.919 29.7339 14.637 29.011 15.3404C28.8461 15.5007 28.8135 15.6511 28.8494 15.8667C29.5178 19.9013 28.4697 23.4088 25.536 26.2802C23.7517 28.0269 21.5324 28.8893 19.0683 29.1462C17.377 29.3225 15.7316 29.1149 14.1295 28.5473C14.0138 28.506 13.8708 28.518 13.7438 28.534C12.5719 28.6791 11.5404 27.9324 11.307 26.7646C11.1114 25.7837 11.8337 24.6918 12.8692 24.4043C13.7504 24.1594 14.6868 24.5247 15.1929 25.29C15.2761 25.4151 15.4191 25.5349 15.5594 25.5828C20.1563 27.1585 25.2913 23.8666 25.7968 19.0349C25.9457 17.6102 25.7169 16.2527 25.1417 14.9497C25.0685 14.7841 25.0712 14.6856 25.2068 14.5505C27.5552 12.2108 29.8969 9.86447 32.2412 7.52014C32.2878 7.47356 32.3403 7.43496 32.4022 7.38306Z" fill="#F41816"/>
</g>
<defs>
<clipPath id="clip0_1821_682">
<rect width="36" height="36.1732" fill="white"/>
</clipPath>
</defs>
</svg>
