<svg width="24" height="24" viewBox="0 0 24 24" fill="none" xmlns="http://www.w3.org/2000/svg">
<path d="M22.5 17.25V15.75H20.9325C20.8201 15.0823 20.5575 14.4489 20.1645 13.8975L21.273 12.7875L20.2125 11.727L19.1033 12.8362C18.5518 12.4428 17.918 12.18 17.25 12.0675V10.5H15.75V12.0675C15.0823 12.1798 14.4488 12.4425 13.8975 12.8355L12.7875 11.727L11.727 12.7875L12.8362 13.8967C12.4429 14.4483 12.1801 15.082 12.0675 15.75H10.5V17.25H12.0675C12.1799 17.9177 12.4425 18.5511 12.8355 19.1025L11.727 20.2125L12.7875 21.273L13.8967 20.1637C14.4482 20.5572 15.082 20.82 15.75 20.9325V22.5H17.25V20.9325C17.9177 20.8202 18.5512 20.5575 19.1025 20.1645L20.2125 21.273L21.273 20.2125L20.1637 19.1033C20.5571 18.5517 20.82 17.918 20.9325 17.25H22.5ZM16.5 19.5C15.9067 19.5 15.3266 19.3241 14.8333 18.9944C14.3399 18.6648 13.9554 18.1962 13.7284 17.648C13.5013 17.0999 13.4419 16.4967 13.5576 15.9147C13.6734 15.3328 13.9591 14.7982 14.3787 14.3787C14.7982 13.9591 15.3328 13.6734 15.9147 13.5576C16.4967 13.4419 17.0999 13.5013 17.648 13.7284C18.1962 13.9554 18.6648 14.3399 18.9944 14.8333C19.3241 15.3266 19.5 15.9067 19.5 16.5C19.499 17.2953 19.1826 18.0578 18.6202 18.6202C18.0578 19.1826 17.2953 19.499 16.5 19.5Z" fill="white"/>
<path d="M21 4.5C21 4.10218 20.842 3.72064 20.5607 3.43934C20.2794 3.15804 19.8978 3 19.5 3H16.5V1.5H15V3H9V1.5H7.5V3H4.5C4.10218 3 3.72064 3.15804 3.43934 3.43934C3.15804 3.72064 3 4.10218 3 4.5V19.5C3 19.8978 3.15804 20.2794 3.43934 20.5607C3.72064 20.842 4.10218 21 4.5 21H7.5V19.5H4.5V4.5H7.5V6H9V4.5H15V6H16.5V4.5H19.5V9H21V4.5Z" fill="white"/>
</svg>
