<svg width="20" height="20" viewBox="0 0 20 20" fill="none" xmlns="http://www.w3.org/2000/svg">
<path d="M2.5 2.5L17.5 17.5M8.82 8.8225C8.50727 9.13501 8.33149 9.55896 8.33133 10.0011C8.33117 10.4432 8.50665 10.8673 8.81917 11.18C9.13168 11.4927 9.55563 11.6685 9.99774 11.6687C10.4399 11.6688 10.8639 11.4933 11.1767 11.1808" stroke="black" stroke-width="1.5" stroke-linecap="round" stroke-linejoin="round"/>
<path d="M7.80283 4.47072C8.51734 4.26632 9.25715 4.16392 10.0003 4.16655C13.3337 4.16655 16.1112 6.11072 18.3337 9.99989C17.6853 11.1341 16.9903 12.1032 16.2478 12.9066M14.4645 14.4574C13.1053 15.3741 11.6187 15.8332 10.0003 15.8332C6.66699 15.8332 3.88949 13.8891 1.66699 9.99989C2.80783 8.00405 4.09449 6.52072 5.52699 5.54905" stroke="black" stroke-width="1.5" stroke-linecap="round" stroke-linejoin="round"/>
</svg>
