<svg width="18" height="18" viewBox="0 0 18 18" fill="none" xmlns="http://www.w3.org/2000/svg">
<path d="M6.80609 1.12503C5.72734 1.12136 4.67122 1.43429 3.76859 2.02503L7.36859 5.62503C7.48849 5.72733 7.5867 5.85258 7.65744 5.99341C7.72819 6.13425 7.77003 6.28782 7.78052 6.44507C7.791 6.60232 7.76991 6.76009 7.71849 6.90907C7.66706 7.05805 7.58635 7.19523 7.48109 7.31253C7.36379 7.41779 7.2266 7.4985 7.07763 7.54993C6.92865 7.60135 6.77088 7.62244 6.61363 7.61196C6.45638 7.60147 6.30281 7.55963 6.16197 7.48888C6.02114 7.41814 5.89589 7.31993 5.79359 7.20003L2.08109 3.60003C1.43922 4.54455 1.10521 5.66448 1.12484 6.80628C1.13077 8.31122 1.73123 9.75283 2.79539 10.817C3.85955 11.8811 5.30116 12.4816 6.80609 12.4875C7.2986 12.4902 7.78964 12.4336 8.26859 12.3188L12.0373 16.0875C12.5669 16.6171 13.2852 16.9147 14.0342 16.9147C14.7832 16.9147 15.5015 16.6171 16.0311 16.0875C16.5607 15.5579 16.8582 14.8396 16.8582 14.0907C16.8582 13.3417 16.5607 12.6234 16.0311 12.0938L12.2623 8.32503C12.3771 7.84608 12.4338 7.35504 12.4311 6.86253C12.4461 6.11443 12.3116 5.37087 12.0356 4.67537C11.7597 3.97988 11.3477 3.34643 10.8239 2.81213C10.3 2.27783 9.67489 1.8534 8.98499 1.56371C8.2951 1.27402 7.55434 1.12488 6.80609 1.12503ZM11.3061 6.80628C11.3053 7.20598 11.2485 7.60359 11.1373 7.98753L10.9686 8.60628L11.4186 9.05628L15.1873 12.825C15.3478 12.977 15.4756 13.1602 15.5626 13.3633C15.6497 13.5665 15.6943 13.7853 15.6936 14.0063C15.6999 14.2281 15.6579 14.4487 15.5705 14.6526C15.4831 14.8566 15.3523 15.0391 15.1873 15.1875C15.035 15.3475 14.8517 15.4749 14.6487 15.5619C14.4456 15.6489 14.227 15.6938 14.0061 15.6938C13.7852 15.6938 13.5666 15.6489 13.3635 15.5619C13.1605 15.4749 12.9772 15.3475 12.8248 15.1875L9.05609 11.4188L8.60609 10.9688L7.98734 11.1375C7.6034 11.2487 7.20579 11.3055 6.80609 11.3063C5.61082 11.303 4.46269 10.8397 3.59984 10.0125C3.16348 9.60194 2.81793 9.10453 2.58542 8.55232C2.35291 8.00011 2.2386 7.40534 2.24984 6.80628C2.25062 6.3881 2.30737 5.9719 2.41859 5.56878L4.89359 8.04378C5.10273 8.27136 5.35507 8.45503 5.63592 8.58409C5.91676 8.71315 6.22049 8.785 6.52939 8.79548C6.83829 8.80595 7.14619 8.75482 7.43513 8.64508C7.72407 8.53534 7.98828 8.36918 8.21234 8.15628C8.42524 7.93222 8.5914 7.66801 8.70114 7.37907C8.81088 7.09013 8.86201 6.78223 8.85154 6.47333C8.84106 6.16443 8.76921 5.8607 8.64015 5.57986C8.51109 5.29901 8.32742 5.04667 8.09984 4.83753L5.62484 2.36253C5.98864 2.24748 6.3683 2.19053 6.74984 2.19378C7.94511 2.1971 9.09324 2.66038 9.95609 3.48753C10.8197 4.37666 11.3038 5.56675 11.3061 6.80628Z" fill="#7E7E7E"/>
</svg>
