<svg width="20" height="20" viewBox="0 0 20 20" fill="none" xmlns="http://www.w3.org/2000/svg">
<path d="M17.5001 1.25H14.3751V2.5H17.5001V17.5H14.3751V18.75H17.5001C17.8313 18.749 18.1487 18.617 18.3829 18.3828C18.6171 18.1486 18.7491 17.8312 18.7501 17.5V2.5C18.7491 2.16878 18.6171 1.85142 18.3829 1.61721C18.1487 1.383 17.8313 1.25099 17.5001 1.25ZM8.75009 10.625H5.00009C4.9167 10.62 4.83321 10.6327 4.75511 10.6624C4.67701 10.692 4.60608 10.7379 4.54701 10.7969C4.48795 10.856 4.44208 10.9269 4.41244 11.005C4.38281 11.0831 4.37008 11.1666 4.37509 11.25V15C4.37008 15.0834 4.38281 15.1669 4.41244 15.245C4.44208 15.3231 4.48795 15.394 4.54701 15.4531C4.60608 15.5121 4.67701 15.558 4.75511 15.5876C4.83321 15.6173 4.9167 15.63 5.00009 15.625H8.75009C8.83347 15.63 8.91697 15.6173 8.99507 15.5876C9.07317 15.558 9.14409 15.5121 9.20316 15.4531C9.26223 15.394 9.3081 15.3231 9.33773 15.245C9.36737 15.1669 9.3801 15.0834 9.37509 15V11.25C9.3801 11.1666 9.36737 11.0831 9.33773 11.005C9.3081 10.9269 9.26223 10.856 9.20316 10.7969C9.14409 10.7379 9.07317 10.692 8.99507 10.6624C8.91697 10.6327 8.83347 10.62 8.75009 10.625ZM8.12509 14.375H5.62509V11.875H8.12509V14.375Z" fill="#7E7E7E"/>
<path d="M15.6251 15.0001V11.2501C15.6301 11.1667 15.6174 11.0832 15.5877 11.0051C15.5581 10.927 15.5122 10.8561 15.4532 10.797C15.3941 10.7379 15.3232 10.6921 15.2451 10.6624C15.167 10.6328 15.0835 10.6201 15.0001 10.6251H11.2501C11.1667 10.6201 11.0832 10.6328 11.0051 10.6624C10.927 10.6921 10.8561 10.7379 10.797 10.797C10.7379 10.8561 10.6921 10.927 10.6624 11.0051C10.6328 11.0832 10.6201 11.1667 10.6251 11.2501V15.0001C10.6201 15.0835 10.6328 15.167 10.6624 15.2451C10.6921 15.3232 10.7379 15.3941 10.797 15.4532C10.8561 15.5122 10.927 15.5581 11.0051 15.5877C11.0832 15.6174 11.1667 15.6301 11.2501 15.6251H15.0001C15.1657 15.6248 15.3245 15.5588 15.4417 15.4417C15.5588 15.3245 15.6248 15.1657 15.6251 15.0001ZM14.3751 14.3751H11.8751V11.8751H14.3751V14.3751ZM8.75009 4.37509H5.00009C4.9167 4.37008 4.83321 4.38281 4.75511 4.41244C4.67701 4.44208 4.60608 4.48795 4.54701 4.54701C4.48795 4.60608 4.44208 4.67701 4.41244 4.75511C4.38281 4.83321 4.37008 4.9167 4.37509 5.00009V8.75009C4.37008 8.83347 4.38281 8.91697 4.41244 8.99507C4.44208 9.07317 4.48795 9.14409 4.54701 9.20316C4.60608 9.26223 4.67701 9.3081 4.75511 9.33773C4.83321 9.36737 4.9167 9.3801 5.00009 9.37509H8.75009C8.83347 9.3801 8.91697 9.36737 8.99507 9.33773C9.07317 9.3081 9.14409 9.26223 9.20316 9.20316C9.26223 9.14409 9.3081 9.07317 9.33773 8.99507C9.36737 8.91697 9.3801 8.83347 9.37509 8.75009V5.00009C9.3801 4.9167 9.36737 4.83321 9.33773 4.75511C9.3081 4.67701 9.26223 4.60608 9.20316 4.54701C9.14409 4.48795 9.07317 4.44208 8.99507 4.41244C8.91697 4.38281 8.83347 4.37008 8.75009 4.37509ZM8.12509 8.12509H5.62509V5.62509H8.12509V8.12509ZM11.2501 9.37509H15.0001C15.0835 9.3801 15.167 9.36737 15.2451 9.33773C15.3232 9.3081 15.3941 9.26223 15.4532 9.20316C15.5122 9.14409 15.5581 9.07317 15.5877 8.99507C15.6174 8.91697 15.6301 8.83347 15.6251 8.75009V5.00009C15.6301 4.9167 15.6174 4.83321 15.5877 4.75511C15.5581 4.67701 15.5122 4.60608 15.4532 4.54701C15.3941 4.48795 15.3232 4.44208 15.2451 4.41244C15.167 4.38281 15.0835 4.37008 15.0001 4.37509H11.2501C11.1667 4.37008 11.0832 4.38281 11.0051 4.41244C10.927 4.44208 10.8561 4.48795 10.797 4.54701C10.7379 4.60608 10.6921 4.67701 10.6624 4.75511C10.6328 4.83321 10.6201 4.9167 10.6251 5.00009V8.75009C10.6254 8.91575 10.6914 9.07453 10.8085 9.19166C10.9256 9.3088 11.0844 9.37476 11.2501 9.37509ZM11.8751 5.62509H14.3751V8.12509H11.8751V5.62509Z" fill="#7E7E7E"/>
<path d="M2.5 2.5H5.625V1.25H2.5C2.16878 1.25099 1.85142 1.383 1.61721 1.61721C1.383 1.85142 1.25099 2.16878 1.25 2.5V17.5C1.25099 17.8312 1.383 18.1486 1.61721 18.3828C1.85142 18.617 2.16878 18.749 2.5 18.75H5.625V17.5H2.5V2.5Z" fill="#7E7E7E"/>
</svg>
