<svg width="18" height="18" viewBox="0 0 18 18" fill="none" xmlns="http://www.w3.org/2000/svg">
<path d="M8.4375 10.6875H9.5625V11.8125H8.4375V10.6875ZM8.4375 12.9375H9.5625V14.0625H8.4375V12.9375Z" fill="black"/>
<path d="M12.9379 6.56437V2.25H13.7254V1.125H4.27539V2.25H5.06289V6.56437C5.06289 6.80779 5.14184 7.04464 5.28789 7.23937L6.60977 9L5.28789 10.7606C5.14184 10.9554 5.06289 11.1922 5.06289 11.4356V15.75H4.27539V16.875H13.7254V15.75H12.9379V11.4356C12.9379 11.1922 12.8589 10.9554 12.7129 10.7606L11.391 9L12.7129 7.23937C12.8589 7.04464 12.9379 6.80779 12.9379 6.56437ZM11.8129 2.25V6.1875H6.18789V2.25H11.8129ZM11.8129 11.4356V15.75H6.18789V11.4356L8.01602 9L6.75039 7.3125H11.2504L9.98477 9L11.8129 11.4356Z" fill="black"/>
</svg>
