<svg width="18" height="18" viewBox="0 0 18 18" fill="none" xmlns="http://www.w3.org/2000/svg">
<path d="M14.625 3.375V1.125H1.125V6.75H6.1875V16.875H16.875V3.375H14.625ZM2.25 5.625V2.25H13.5V3.375H6.1875V5.625H2.25ZM15.75 15.75H7.3125V4.5H15.75V15.75Z" fill="#7E7E7E"/>
<path d="M8.4375 6.1875H9.5625V7.3125H8.4375V6.1875ZM10.6875 6.1875H14.625V7.3125H10.6875V6.1875ZM8.4375 9.5625H9.5625V10.6875H8.4375V9.5625ZM10.6875 9.5625H14.625V10.6875H10.6875V9.5625ZM8.4375 12.9375H9.5625V14.0625H8.4375V12.9375ZM10.6875 12.9375H14.625V14.0625H10.6875V12.9375Z" fill="#7E7E7E"/>
</svg>
